<?xml version="1.0" encoding="UTF-8"?>
<svg width="115px" height="36px" viewBox="0 0 115 36" version="1.1" xmlns="http://www.w3.org/2000/svg" xmlns:xlink="http://www.w3.org/1999/xlink">
    <!-- Generator: Sketch 48.1 (47250) - http://www.bohemiancoding.com/sketch -->
    <title>thortful-logo-final_blue_Strap</title>
    <desc>Created with Sketch.</desc>
    <defs></defs>
    <g id="Mobile---HP---Categories" stroke="none" stroke-width="1" fill="none" fill-rule="evenodd" transform="translate(-13.000000, -11.000000)">
        <g id="thortful-logo-final_blue_Strap" transform="translate(13.000000, 11.000000)">
            <path d="M108.200524,1.15873828 C107.080119,1.15873828 105.999762,1.40764767 105.071238,1.89212915 C104.372392,2.2401845 103.740937,2.70200863 103.205986,3.25944354 C103.464776,2.01794971 104.53114,1.37791995 104.553014,1.36506472 C103.718902,0.627977979 102.627448,0.174349055 101.425014,0.174349055 C99.3719021,0.174349055 97.6388601,1.48799286 96.9837622,3.31327481 C99.4803077,3.87070972 100.512734,5.71977384 100.937832,7.1743431 C100.219685,5.51280464 98.5746224,4.34635322 96.6537203,4.32048207 L96.655007,4.31292962 L96.6403706,4.31357239 C96.6213916,4.31357239 96.6054685,4.31132272 96.5880979,4.31132272 C93.9746224,4.31132272 91.8534755,6.42970391 91.8534755,9.04140455 C91.8534755,11.6555155 93.9746224,13.7721291 96.5880979,13.7721291 C96.6054685,13.7721291 96.6213916,13.7700402 96.6403706,13.7700402 C96.6556503,13.7700402 96.673021,13.7721291 96.6908741,13.7721291 C96.9183007,13.7721291 97.1392937,13.7512394 97.3588392,13.7205475 C98.555,15.6620086 100.695608,16.9589406 103.145832,16.9589406 C105.258615,16.9589406 107.143811,15.9949591 108.390476,14.4849516 C111.754587,14.1240411 114.907839,11.3196727 114.907839,7.86145514 C114.907839,4.16059515 111.905776,1.15873828 108.200524,1.15873828" id="Fill-1" fill="#51607F"></path>
            <path d="M93.4933916,16.5340753 C92.4479371,16.5340753 91.5977413,17.3804315 91.5977413,18.4263651 C91.5977413,19.4708526 92.4479371,20.318655 93.4933916,20.318655 C94.5386853,20.318655 95.3879161,19.4708526 95.3879161,18.4263651 C95.3879161,17.3804315 94.5386853,16.5340753 93.4933916,16.5340753" id="Fill-3" fill="#51607F"></path>
            <path d="M88.9471119,21.7642256 C88.5398671,22.1143699 88.494993,22.7301354 88.8470699,23.1368427 C89.1985035,23.5432287 89.8141958,23.5887041 90.2219231,23.2369528 C90.6294895,22.8847195 90.6725944,22.2705609 90.321,21.8624074 C89.970049,21.4560214 89.3548392,21.410546 88.9471119,21.7642256" id="Fill-4" fill="#51607F"></path>
            <path d="M85.6999301,10.6005832 C85.4485385,11.4061241 85.1488951,12.2158429 84.8125804,13.0244368 C84.0854266,14.6785835 83.1606014,16.6263116 82.1862378,18.4756971 L82.1852727,18.4756971 C82.1852727,18.4756971 81.7646783,19.2055527 81.1893566,20.1631067 L81.1893566,20.1439845 C81.4846573,17.9563458 82.3332448,14.6686207 84.128049,9.67629222 C84.2354895,9.43589942 84.3424476,9.19904181 84.4543916,8.98805535 C84.7344126,8.44765362 85.0182937,8.01748549 85.3012098,7.70301443 C85.5846084,7.38677578 85.8485455,7.22881714 86.0920559,7.22881714 C86.1605734,7.22881714 86.2027133,7.31382235 86.2152587,7.48672519 C86.2281259,7.65978872 86.2342378,7.8688469 86.2342378,8.11325696 C86.1567133,8.88216039 85.978986,9.71100134 85.6999301,10.6005832 M62.2373566,30.3791579 C62.2063147,30.8556048 62.1477692,31.2966999 62.058986,31.6956941 C61.9702028,32.0961345 61.8396014,32.4268353 61.6665385,32.6892427 C61.4928322,32.9503645 61.2633147,33.0805237 60.9758951,33.0805237 C60.8830909,33.0805237 60.7926993,33.0246035 60.7037552,32.910674 C60.6160979,32.7985121 60.5356783,32.5508883 60.4637832,32.1705341 C60.392049,31.7900193 60.3333427,31.2361196 60.2865385,30.5004791 C60.2394126,29.7662848 60.214965,28.7791638 60.214965,27.5384734 C60.214965,27.3609106 60.2244545,27.1197143 60.241021,26.8103854 C60.2606434,26.5039488 60.2813916,26.168588 60.3051958,25.8108912 C60.3304476,25.4528731 60.3602028,25.0889094 60.3941399,24.715465 C60.4277552,24.3455557 60.4637832,24.0105163 60.5012587,23.7100253 C60.5377692,23.4111412 60.5794266,23.1668918 60.6222098,22.975831 C60.6638671,22.786377 60.701986,22.6925338 60.7359231,22.6925338 C60.8372517,22.6925338 60.9467832,22.8059813 61.0637133,23.0319119 C61.1845035,23.2626633 61.299986,23.5583336 61.4136993,23.9256718 C61.5283776,24.2926886 61.6374266,24.7080732 61.7414895,25.1719863 C61.8487692,25.6349353 61.9410909,26.1019015 62.0208671,26.5704746 C62.1012867,27.0379229 62.1646573,27.488338 62.2116224,27.9189882 C62.2571399,28.3481922 62.2815874,28.7107097 62.2815874,29.0078262 C62.2815874,29.444904 62.265986,29.903193 62.2373566,30.3791579 M61.7242797,16.4477846 C61.7825035,15.9033656 61.8847972,15.2723345 62.026979,14.5554947 C62.1712517,13.8389763 62.3813077,13.0183306 62.661007,12.0946823 C62.9402238,11.1702306 63.3241469,10.1008362 63.8126154,8.88521351 C63.9744196,8.47272132 64.1556853,8.16194614 64.3573776,7.95594108 C64.561,7.74913257 64.8569441,7.6451659 65.2442448,7.6451659 C65.4641119,7.6451659 65.6373357,7.74913257 65.7661678,7.95594108 C65.8916224,8.16194614 65.9538671,8.48911174 65.9538671,8.93615236 C65.9538671,9.2576938 65.8218182,9.72401726 65.5553077,10.3413897 C65.2894406,10.9589228 64.9450839,11.6669246 64.5212727,12.472144 C64.1006783,13.2792918 63.6286154,14.1513584 63.1042797,15.0931647 C62.8004545,15.6371016 62.5022587,16.1975896 62.2030979,16.7510073 L62.197951,16.7466687 C62.197951,16.7466687 61.967951,17.1180241 61.5775944,17.7006874 C61.6264895,17.309567 61.6757063,16.8945038 61.7242797,16.4477846 M31.8620769,22.8500104 C31.7387133,23.3854307 31.5772308,23.8769826 31.3742517,24.318399 C31.1722378,24.7612617 30.934035,25.1282785 30.6654336,25.4176819 C30.3955455,25.7091742 30.1164895,25.8563666 29.8289091,25.8563666 C29.5001538,25.8563666 29.2172378,25.7846987 28.980965,25.6468264 C28.7453357,25.5057402 28.5532937,25.3222318 28.410951,25.0901949 C28.2657133,24.8583187 28.1614895,24.5849844 28.0942587,24.2726023 C28.0273497,23.9618271 27.9930909,23.6280732 27.9930909,23.2747151 C27.9930909,22.758899 28.06,22.2234786 28.1957483,21.6666865 C28.3292448,21.1087695 28.5167832,20.6019521 28.7522517,20.1410921 C28.9886853,19.6811963 29.2637203,19.3053415 29.577035,19.0096712 C29.619014,18.9701413 29.6621189,18.9396102 29.7045804,18.9050617 C29.8741049,18.7911323 30.1018531,18.6759173 30.391042,18.5849665 C30.4483007,18.5774141 30.5052378,18.5664871 30.5633007,18.5664871 C30.8264336,18.5664871 31.05,18.638155 31.2352867,18.7821336 C31.4207343,18.9259515 31.5733706,19.1203868 31.693035,19.3643148 C31.8093217,19.6085642 31.8982657,19.8968427 31.9561678,20.2305966 C32.016965,20.5643505 32.0467203,20.9234935 32.0467203,21.3120429 C32.0467203,21.8016664 31.9851189,22.3147508 31.8620769,22.8500104 M16.715049,16.7540604 L16.715049,16.7556673 C16.5984406,17.0256271 16.4834406,17.2943014 16.3661888,17.566993 C16.2489371,17.8372742 16.1358671,18.0982354 16.0264965,18.351162 C15.883028,18.683309 15.7464755,18.9989049 15.6173217,19.3006814 C15.6937203,18.337664 15.8048601,17.3563279 15.9472028,16.3523345 C16.0067133,15.922327 16.0753916,15.4688588 16.1556503,14.9917691 C16.2352657,14.5154828 16.3242098,14.0284303 16.422,13.5368784 C16.5191469,13.0433983 16.6288392,12.548954 16.7513986,12.0490463 C16.8737972,11.5517096 17.0058462,11.0707633 17.1510839,10.6066895 C17.7333217,9.24017854 18.239965,8.19810147 18.6708531,7.48061896 C19.1012587,6.76474334 19.4263147,6.40608243 19.6453776,6.40608243 C19.8139371,6.40608243 19.899021,6.7269811 19.899021,7.36829638 C19.899021,7.79010861 19.7870769,8.44363636 19.5623846,9.32952239 C19.3384965,10.2139622 18.9786993,11.3029609 18.4802587,12.5934653 C18.3281049,12.9743014 18.1367063,13.4345187 17.9044545,13.9800625 C17.6710769,14.5238387 17.4248322,15.1023241 17.1637902,15.7134295 C17.0161399,16.0573069 16.864951,16.4069692 16.715049,16.7540604 M51.8878392,12.5057283 C52.0691049,11.7792471 52.2632378,11.1162387 52.471042,10.5128463 C52.6778811,9.90897188 52.8929231,9.4145276 53.116007,9.0256569 C53.3406993,8.63726826 53.5613706,8.44363636 53.7817203,8.44363636 C53.9415944,8.44363636 54.0678531,8.47786341 54.1545455,8.54406785 C54.2433287,8.61139711 54.3086294,8.69704508 54.3518951,8.79795864 C54.3941958,8.89806874 54.4223427,9.00653474 54.4334406,9.12110698 C54.445986,9.23246541 54.4522587,9.33739622 54.4522587,9.42979319 C54.4522587,9.69975301 54.3808462,10.0470049 54.2360909,10.4686564 C54.0937483,10.8904687 53.9121608,11.3421693 53.6930979,11.8276149 C53.5427133,12.1584764 53.374958,12.4952834 53.1985175,12.8349829 C53.2586713,12.700003 52.8293916,13.5175956 52.1585315,14.7065437 C52.0237483,14.6906353 51.8950769,14.6761732 51.7676923,14.663318 C51.6423986,14.650302 51.5142098,14.636804 51.3873077,14.618646 C51.5405874,13.936194 51.7054476,13.2315667 51.8878392,12.5057283 M88.7846643,5.80461836 C88.729979,5.4634727 88.6362098,5.15703616 88.5001399,4.88707633 C88.3656783,4.61695581 88.1797483,4.40098795 87.9437972,4.23563755 C87.7059161,4.07092992 87.4062727,3.98817438 87.0443846,3.98817438 C86.5113636,3.98817438 85.9868671,4.14822199 85.4721818,4.46847791 C84.9581399,4.78985865 84.4638811,5.2314358 83.9887622,5.79176313 C83.5166993,6.35353668 83.0658671,7.01043892 82.6356224,7.76568368 C82.2048951,8.52108912 81.8066573,9.33418241 81.4384965,10.203196 C81.0706573,11.0707633 80.7420629,11.9786639 80.4514266,12.9228805 C80.1595035,13.8679006 79.9081119,14.8082607 79.6956434,15.7454069 C79.4862308,16.6814284 79.3250699,17.589811 79.2165035,18.4718405 C79.1367273,19.1096206 79.0966783,19.699997 79.0746434,20.2686803 L79.0630629,20.2686803 C79.0630629,20.2686803 79.060972,20.3928939 79.0630629,20.6008273 C79.060972,20.705276 79.0518042,20.8192055 79.0518042,20.9206011 C79.0518042,21.731284 79.1217692,22.5025978 79.2361259,23.2520577 C78.9635035,23.6507305 78.7103427,24.0028032 78.4961049,24.2652105 C78.1152378,24.683809 77.7583357,24.9968338 77.4477552,25.1343848 C77.3493217,25.1780925 77.2724406,25.2192293 77.1891259,25.2618122 C77.1365315,25.2810951 77.0812028,25.3056807 77.0303776,25.3238387 C76.7629021,25.4163964 76.5401399,25.4631573 76.3532448,25.4631573 C76.1842028,25.4631573 76.0548881,25.4242702 75.9662657,25.341836 C75.8778042,25.2630978 75.8121818,25.1494897 75.7702028,25.0006904 C75.7287063,24.8538194 75.7018462,24.6793096 75.6944476,24.4819818 C75.6868881,24.2832079 75.6814196,24.0680434 75.6814196,23.8297396 C75.6814196,23.7039191 75.7057063,23.4792739 75.7573357,23.1550007 C75.8084825,22.8286386 75.8742657,22.4510162 75.9533986,22.0218122 C76.0344615,21.5913227 76.120993,21.1272489 76.2137972,20.6294301 C76.3061189,20.1320934 76.3926503,19.6482547 76.4722657,19.1809671 C76.553007,18.712394 76.6199161,18.2820652 76.6696154,17.8911055 C76.7201189,17.4972534 76.7458531,17.1872817 76.7458531,16.9595834 C76.7458531,16.7246541 76.6199161,16.5297366 76.3646643,16.3780449 C76.1116643,16.2263532 75.7702028,16.1505074 75.3412448,16.1505074 C74.9589301,16.1505074 74.6195594,16.2186401 74.3203986,16.3584407 C74.0207552,16.4977593 73.8491399,16.6684124 73.8078042,16.8708823 L72.555028,23.2989793 C72.4849021,23.6357863 72.3832517,23.9375629 72.2487902,24.2028627 C72.1136853,24.4681625 71.958958,24.6928076 71.7881469,24.8748698 C71.6126713,25.0567713 71.4297972,25.194965 71.2356643,25.2934682 C71.0418531,25.3889183 70.8522238,25.4392144 70.6661329,25.4392144 C70.5379441,25.4392144 70.430021,25.4041839 70.3359301,25.3373367 C70.2432867,25.269204 70.1673706,25.181467 70.1088252,25.07043 C70.0491538,24.9630888 70.0049231,24.8366255 69.9761329,24.6973069 C69.9452517,24.5578277 69.929972,24.4136884 69.929972,24.2623181 C69.929972,24.2531588 69.9503986,24.1225175 69.9883566,23.8694301 C70.0264755,23.6161821 70.0785874,23.2821068 70.1464615,22.8683291 C70.2144965,22.4555155 70.2904126,21.9853355 70.3746923,21.4592352 C70.4581678,20.9312067 70.5453427,20.3883946 70.6413636,19.8316024 C70.7320769,19.2751317 70.8240769,18.7229996 70.913021,18.1737599 C71.0001958,17.6264484 71.0831888,17.1287904 71.1594266,16.6814284 C71.1594266,16.5380925 71.0616364,16.4175748 70.8675035,16.3201964 C70.6728881,16.2233001 70.3528182,16.1672192 69.9053636,16.1505074 C69.6353147,16.1580598 69.3930909,16.2294063 69.1769231,16.3661538 C68.962042,16.5001696 68.7736993,16.6724297 68.6151119,16.8830948 C68.4549161,17.0953668 68.3148252,17.3320637 68.1953217,17.5930248 C68.0769441,17.8555929 67.9785105,18.1118941 67.8976084,18.3635352 C67.8181538,18.6167832 67.7551049,18.8517125 67.7092657,19.0654307 C67.6838531,19.1822526 67.6631049,19.284291 67.6466993,19.3765273 C67.3861399,20.0395358 66.406951,21.2665675 62.1736643,20.8630739 C62.1492168,20.8508615 62.1265385,20.8479691 62.1057902,20.8582532 L62.1022517,20.8582532 L62.1027343,20.8560036 C63.7127343,18.7514417 64.5167692,17.1652671 64.5167692,17.1652671 L64.5344615,17.1422883 L64.5304406,17.1422883 C64.7263427,16.8246035 64.9193497,16.5038655 65.1043147,16.1800744 C65.5614196,15.3920488 65.9804056,14.6019342 66.3669021,13.8086059 C66.7498601,13.0162416 67.0823147,12.2510341 67.3665175,11.5184467 C67.6502378,10.7834489 67.8688182,10.0948906 68.0269231,9.44875465 C68.1826154,8.80326142 68.2598182,8.23297128 68.2598182,7.73483113 C68.2598182,7.18575212 68.1726434,6.72441006 68.0003846,6.34759113 C67.8263566,5.97286118 67.6085804,5.67269156 67.3468951,5.44354709 C67.0855315,5.21617021 66.7958601,5.05162327 66.479972,4.95054903 C66.1648881,4.8491534 65.8612238,4.79757179 65.5728392,4.79757179 C64.8477762,4.79757179 64.1798112,5.01739622 63.5724825,5.45736646 C62.9648322,5.89556911 62.4134755,6.4917304 61.9190559,7.24793929 C61.4265664,8.00254129 60.981042,8.8837673 60.5832867,9.89402767 C60.1863357,10.9010742 59.8337762,11.9732004 59.5243217,13.1123345 C59.4604685,13.3517631 59.399993,13.594727 59.34,13.8376908 C59.248,14.2701086 58.6421189,17.1307186 58.4306154,18.3248088 C58.4174266,18.4043505 58.4031119,18.4851778 58.3899231,18.5645588 L58.3883147,18.5735575 L58.3883147,18.5745216 C58.3006573,19.103193 58.2195944,19.6254367 58.1452867,20.1410921 C58.0257832,20.964791 57.9307273,21.7441393 57.8445175,22.5058116 C57.0732937,23.3246898 56.272958,24.0482785 55.5055944,24.5244041 C55.2567762,24.664044 55.0158392,24.7898646 54.785035,24.900741 C54.6582937,24.9566612 54.5449021,25.0085642 54.4414825,25.0601458 C54.2013497,25.1662015 53.971993,25.2569915 53.7620979,25.3238387 C53.4960699,25.4086832 53.2733077,25.4512662 53.0975105,25.4512662 C52.8113776,25.4512662 52.5511399,25.4070763 52.3180839,25.3180539 C52.086958,25.2298348 51.8902517,25.0842494 51.7292517,24.8870823 C51.5684126,24.6883083 51.4456923,24.4352209 51.3610909,24.1225175 C51.276972,23.8101354 51.2351538,23.4262461 51.2351538,22.9713316 C51.2351538,22.7921619 51.238049,22.5998155 51.2419091,22.3889897 C51.2459301,22.1763964 51.2522028,21.9565719 51.2605664,21.7290344 C51.2694126,21.5031037 51.276972,21.2726737 51.2863007,21.0406368 C51.294021,20.8098854 51.3028671,20.5826692 51.3121958,20.3625234 C51.3175035,20.2518078 51.3242587,20.1381997 51.3314965,20.0242702 C51.4363636,19.8393156 51.5415524,19.6601458 51.6462587,19.4600863 L51.6528531,19.4462669 C52.1406783,18.7213926 52.6606713,17.8976938 53.2163706,16.9467282 L55.669007,16.9467282 C57.9437552,16.9565303 57.591035,15.6673114 57.1363427,15.336932 C56.6814895,15.0063919 55.669007,14.9903229 55.669007,14.9903229 C55.5173357,14.9842166 55.3703287,14.9784318 55.232007,14.9734504 C54.9995944,14.9644517 54.7943636,14.9583455 54.6172797,14.9546496 C54.4980979,14.950793 54.4106014,14.9467758 54.3364545,14.9417944 C54.5883287,14.475953 54.8435804,13.9921143 55.1060699,13.479512 C55.3788531,12.9897277 55.618021,12.5073352 55.821,12.0308883 C56.0222098,11.5539592 56.184014,11.0860289 56.3015874,10.6266151 C56.4206084,10.1659158 56.4788322,9.73012349 56.4788322,9.31666716 C56.4788322,8.82752567 56.4225385,8.35589942 56.3075385,7.9038774 C56.1941469,7.45330159 56.0318601,7.05977087 55.821,6.72232108 C55.6098182,6.38390716 55.3540839,6.11410802 55.0542797,5.9108347 C54.7547972,5.70916828 54.4231469,5.60745127 54.0610979,5.60745127 C53.493014,5.60745127 52.9537203,5.85844964 52.4388741,6.3614105 C51.9237063,6.86340723 51.4489091,7.52914745 51.0128741,8.36200565 C50.5789301,9.19309627 50.1864825,10.1411695 49.8358531,11.2073501 C49.4853846,12.2752983 49.1961958,13.377795 48.9676434,14.5167683 C48.884007,14.5344443 48.7291189,14.5411933 48.5057133,14.5357298 C48.281021,14.5312305 48.0288252,14.5267311 47.7457483,14.5167683 C47.4634755,14.5093766 47.1675315,14.5064842 46.859042,14.5109835 C46.5513566,14.5154828 46.2689231,14.5383008 46.0106154,14.58233 C45.751986,14.6239488 45.5419301,14.6885463 45.3772308,14.7778902 C45.2133357,14.8659485 45.1308252,14.9932153 45.1308252,15.163065 C45.1308252,15.2390716 45.134042,15.3297009 45.1433706,15.4362387 C45.1512517,15.5398839 45.1813287,15.6409582 45.2327972,15.7396221 C45.2816923,15.8365184 45.3616294,15.9200774 45.4721259,15.9904598 C45.5834266,16.0640559 45.7386364,16.1133879 45.940972,16.1370094 C46.3972727,16.1869841 46.7462937,16.2294063 46.9862657,16.2641155 C47.227042,16.2976997 47.4245524,16.3291951 47.5800839,16.3584407 C47.738028,16.389936 47.8848741,16.4175748 48.0243217,16.4477846 C48.1647343,16.4773516 48.3604755,16.5083648 48.6141189,16.540985 C48.5362727,17.1077399 48.4782098,17.6764232 48.4359091,18.2512126 C48.3939301,18.8247166 48.3731818,19.3643148 48.3731818,19.8693647 C48.3731818,20.1001161 48.3783287,20.3202619 48.383958,20.5413718 C47.8716853,21.1468531 47.4100769,21.5593453 47.0588042,21.638405 C46.906007,21.6727927 46.7818392,21.711037 46.6713427,21.7520131 C46.501014,21.7835084 46.3332587,21.8064871 46.1687203,21.8064871 C46.0342587,21.8064871 45.9052657,21.780616 45.7828671,21.7290344 C45.6604685,21.6790597 45.549972,21.5942151 45.4542727,21.471287 C45.3571259,21.3485196 45.277993,21.1862223 45.2184825,20.9827883 C45.1592937,20.7811219 45.1301818,20.5277131 45.1301818,20.2230442 C45.1301818,20.0469275 45.1517343,19.8258176 45.1948392,19.559875 C45.2348881,19.2932897 45.2816923,19.0202767 45.332035,18.7381044 C45.3841469,18.4544859 45.429986,18.186133 45.4721259,17.9274215 C45.5149091,17.6693528 45.5358182,17.4700967 45.5358182,17.3275644 C45.5358182,17.1410028 45.5018811,16.9742062 45.4341678,16.8270138 C45.3654895,16.6785359 45.2771888,16.5556078 45.162993,16.4538908 C45.0487972,16.3523345 44.9138531,16.274721 44.7625035,16.2186401 C44.610993,16.1656123 44.4554615,16.1370094 44.2951049,16.1370094 C43.8307622,16.1370094 43.4201399,16.261223 43.0654895,16.5099717 C42.7103566,16.7585597 42.3941469,17.065157 42.1165385,17.4275138 C41.8365175,17.7916381 41.5917203,18.181473 41.3802168,18.5984645 C41.1695175,19.0157774 40.9790839,19.3933998 40.8121329,19.7300461 L40.6725245,19.7300461 C40.6551538,19.3006814 40.6467902,18.8640857 40.6467902,18.4209017 L40.6467902,17.2898021 C40.6467902,17.027234 40.6406783,16.8202648 40.6281329,16.6684124 C40.6147832,16.5159173 40.5790769,16.4023092 40.5205315,16.3201964 C40.4615035,16.2401726 40.369986,16.1898765 40.2477483,16.1686654 C40.1243846,16.1466508 39.9540559,16.1370094 39.7335455,16.1370094 C39.5398951,16.1370094 39.3774476,16.1466508 39.2466853,16.1686654 C39.1152797,16.1898765 39.0067133,16.2324595 38.9179301,16.2962535 C38.828021,16.3584407 38.750979,16.4448921 38.6840699,16.5556078 C38.6145874,16.6651986 38.5484825,16.8117483 38.4802867,16.9983098 C38.3705944,17.2766255 38.2612238,17.6309478 38.1515315,18.0601518 C38.041035,18.4909627 37.9321469,18.9611427 37.8208462,19.4782443 C37.8105524,19.5314328 37.7994545,19.5860675 37.7881958,19.6407023 C37.5795874,19.4068978 37.3663147,19.1748609 37.1443566,18.9457164 C36.6171259,18.4074037 36.0458252,17.9274215 35.4341538,17.5096265 C35.3571119,17.4578842 35.2746014,17.4185151 35.1961119,17.3685404 L35.2228112,17.3706294 C34.6441119,17.0012022 34.0877692,16.7405624 33.5513706,16.5480553 C33.5227413,16.5364856 33.4952378,16.5220235 33.465,16.5099717 C33.3980909,16.4874751 33.3282867,16.4697991 33.2592867,16.4477846 C33.1725944,16.4206279 33.0850979,16.3915429 32.9996923,16.3690463 C32.9165385,16.3454248 32.8308112,16.3280702 32.747014,16.3083053 C31.6507343,16.0526469 30.6892378,16.1005327 29.9276643,16.2567237 C29.8927622,16.2641155 29.8578601,16.2711858 29.8227972,16.2777741 C29.6405664,16.3189109 29.4662168,16.36294 29.3097203,16.4114685 C29.2563217,16.4280196 29.2038881,16.4477846 29.1511329,16.466746 C29.1294196,16.4741378 29.1059371,16.4829757 29.085028,16.4903675 L29.0724825,16.4887606 L29.0732867,16.4932599 C28.4606503,16.7116381 28.1064825,16.9467282 28.1064825,16.9467282 L28.1096993,16.9467282 C27.6624056,17.2113852 27.2707622,17.5377474 26.9201329,17.9084601 L26.9201329,17.8911055 C26.9101608,17.9017111 26.8828182,17.9343312 26.8427692,17.9843059 C26.8192867,18.0085702 26.7919441,18.0288171 26.7703916,18.054849 C26.3816434,18.4999613 26.0752448,19.0186698 25.8217622,19.5844606 L25.8187063,19.5585895 C25.8187063,19.5585895 25.8117902,19.5844606 25.8023007,19.6222229 C25.7754406,19.6844101 25.7387692,19.7390448 25.7125524,19.8029996 L25.7029021,19.8103913 C25.7029021,19.8103913 25.6657483,19.9045559 25.6154056,20.0469275 C25.3522727,20.6553013 25.1293497,21.3634638 25.0305944,22.1339741 C24.7573287,22.869936 24.4313077,23.5977027 24.0761748,24.0665972 C24.0124825,24.1422824 23.9471818,24.2210207 23.8873497,24.2861003 L23.8614545,24.3167921 C23.322965,24.9050796 22.9613986,25.1310103 22.9613986,25.1310103 C22.8621608,25.1494897 22.7656573,25.1600952 22.6722098,25.1600952 C22.512014,25.1600952 22.3807692,25.0583782 22.2791189,24.8552656 C22.1795594,24.6518316 22.1282517,24.3820324 22.1282517,24.0466716 C22.1282517,23.4312275 22.2057762,22.8408511 22.3630769,22.273614 C22.5192517,21.7081446 22.6915105,21.1558518 22.8822657,20.6111114 C23.0712517,20.0665318 23.2476923,19.5224342 23.4074056,18.9776938 C23.566958,18.4348817 23.6483427,17.8748758 23.6483427,17.3016932 C23.6483427,17.0151823 23.6097413,16.7800922 23.5341469,16.599637 C23.459035,16.4175748 23.3634965,16.2772921 23.2501049,16.1754144 C23.1363916,16.0730546 23.014958,16.003315 22.8875734,15.9653921 C22.7627622,15.9281119 22.6471189,15.9093111 22.5454685,15.9093111 C22.139993,15.9093111 21.7081399,16.0595566 21.2483007,16.3584407 C20.7873357,16.6586103 20.3257273,17.0333403 19.8607413,17.4853623 C19.3968811,17.9372236 18.9474965,18.4225086 18.5182168,18.9457164 C18.3971049,19.0945157 18.2792098,19.2384943 18.1648531,19.3794197 C17.8726084,19.7422586 17.6012727,20.0866181 17.3522937,20.414105 L17.1443287,20.2686803 C17.5522168,19.559875 17.9515804,18.7911323 18.3289091,17.9446154 L18.3412937,17.9192263 C18.6365944,17.3563279 18.934951,16.7738253 19.2397413,16.1564529 C19.6299371,15.3684273 20.0083916,14.5534057 20.3805734,13.7139592 C20.7516294,12.874352 21.0827972,12.0455111 21.3743986,11.227115 C21.665035,10.4079155 21.9003427,9.62069335 22.0775874,8.86175272 C22.254993,8.1008838 22.3437762,7.40991519 22.3437762,6.78611516 C22.3437762,6.36285672 22.3104825,5.98218122 22.2432517,5.64103556 C22.1739301,5.2981223 22.0552308,5.00534444 21.881042,4.76029162 C21.7081399,4.51539949 21.476049,4.32578485 21.1838042,4.19080494 C20.893007,4.05598572 20.5190559,3.98817438 20.0629161,3.98817438 C19.1853776,3.98817438 18.409007,4.23338789 17.7333217,4.72252939 C17.0577972,5.21086743 16.4696084,5.87146556 15.9658601,6.70255617 C15.4637203,7.53445023 15.0378182,8.49537866 14.687028,9.58919804 C14.3363986,10.6809284 14.0441538,11.8276149 13.8133497,13.0305431 C13.748049,13.3684749 13.6885385,13.7081744 13.6327273,14.0489987 C13.592035,14.3096384 13.3937203,15.615087 13.2494476,16.9505847 C13.1362168,18.0824877 13.0455035,19.1684333 12.9842238,20.1989406 C12.9293776,21.080006 12.8944755,21.8992055 12.8751748,22.6560571 C12.6614196,22.8622229 12.4592448,23.0532837 12.2713846,23.2247404 C12.0347902,23.4158012 11.7977133,23.6083083 11.5451958,23.7871567 C11.2026084,24.0269067 10.8571259,24.248338 10.5068182,24.4517721 C10.156993,24.6518316 9.82260839,24.8277875 9.5063986,24.9749799 C9.35231469,25.0464871 9.20691608,25.1085136 9.0656993,25.1679691 L9.03690909,25.1780925 C8.89681818,25.2343342 8.76090909,25.2828627 8.63255944,25.3238387 C8.36701399,25.4086832 8.14376923,25.4512662 7.96732867,25.4512662 C7.68023077,25.4512662 7.42063636,25.4070763 7.18854545,25.3180539 C6.95500699,25.2298348 6.75862238,25.0842494 6.59762238,24.8870823 C6.43855245,24.6883083 6.31567133,24.4352209 6.23251748,24.1225175 C6.14711189,23.8101354 6.10561538,23.4262461 6.10561538,22.9713316 C6.10561538,22.7921619 6.10786713,22.5998155 6.11092308,22.3889897 C6.11671329,22.1763964 6.12137762,21.9565719 6.13038462,21.7290344 C6.13987413,21.5031037 6.14711189,21.2726737 6.15547552,21.0406368 L6.42600699,16.8787561 L8.35479021,16.9467282 L8.48925175,16.9467282 L11.390951,16.9833656 L11.4284266,16.9838476 L11.4560909,16.984169 L11.4511049,16.9828835 C11.7612028,16.9724386 12.0143636,16.8197828 12.2416294,16.267972 C12.8052098,14.9011397 11.0700769,15.0025353 10.9764685,15.008963 C10.9351329,15.0070347 10.8958881,15.0059098 10.8540699,15.0038209 C10.3807203,15.0102485 9.83869231,14.9861449 9.30454545,14.9479006 C9.22074825,14.944044 9.1531958,14.9401875 9.10671329,14.9356881 L9.10832168,14.9331171 C7.82257343,14.833007 6.81105594,14.6983485 6.81105594,14.6983485 C6.81105594,14.6983485 7.29711189,12.6145157 7.59562937,11.0048802 L8.58800699,6.33666419 C8.74096503,5.32319 8.94104895,4.75338194 8.54667133,4.3950424 C8.31924476,4.18855527 6.81105594,3.48907008 6.18362238,5.15558994 C6.18362238,5.15558994 4.87744755,9.47864306 3.83762238,14.5167683 C3.75286014,14.5344443 3.59958042,14.5411933 3.37569231,14.5357298 C3.15212587,14.5312305 2.89864336,14.5267311 2.6146014,14.5167683 C2.33345455,14.5093766 2.03734965,14.5064842 1.7286993,14.5109835 C1.42020979,14.5154828 1.13858042,14.5383008 0.880594406,14.58233 C0.622447552,14.6239488 0.410944056,14.6885463 0.246405594,14.7778902 C0.0823496503,14.8659485 0,14.9932153 0,15.163065 C0,15.2390716 0.0045034965,15.3297009 0.0125454545,15.4362387 C0.0215524476,15.5398839 0.051951049,15.6409582 0.10165035,15.7396221 C0.152153846,15.8365184 0.232895105,15.9200774 0.342104895,15.9904598 C0.45227972,16.0640559 0.60765035,16.1133879 0.809825175,16.1370094 C1.26612587,16.1869841 1.61546853,16.2294063 1.85640559,16.2641155 C2.09702098,16.2976997 2.2954965,16.3291951 2.45070629,16.3584407 C2.60784615,16.389936 2.75469231,16.4175748 2.89462238,16.4477846 C3.03374825,16.4773516 3.22948951,16.5083648 3.48377622,16.540985 C3.40593007,17.1077399 3.34867133,17.6764232 3.30508392,18.2512126 C3.26294406,18.8247166 3.24283916,19.3643148 3.24283916,19.8693647 C3.24283916,21.1695105 3.32438462,22.3374081 3.48827972,23.3762714 C3.6541049,24.4136884 3.90195804,25.296682 4.22990909,26.0260556 C4.55946853,26.7559113 4.97009091,27.3154352 5.45888112,27.7036631 C5.94847552,28.0918911 6.51511189,28.2845588 7.1566993,28.2845588 C7.46824476,28.2845588 7.81823077,28.226871 8.20183217,28.1087636 C8.58591608,27.9890492 9.02436364,27.8127719 9.51894406,27.5762357 C9.79333566,27.4459158 10.0931399,27.2913316 10.4119231,27.1243743 L10.4127273,27.1256599 C10.4127273,27.1256599 10.9007133,26.9166017 11.6671119,26.3975718 C12.010986,26.1658563 12.4095455,25.8714715 12.8455804,25.5057402 C12.8463846,25.8439935 12.8581259,26.1764618 12.8819301,26.5008957 C12.907986,26.8389882 12.962028,27.1407648 13.0463077,27.406386 C13.1317133,27.6704002 13.2534685,27.8841184 13.4138252,28.0451302 C13.5746643,28.2038923 13.794049,28.2845588 14.0731049,28.2845588 C14.2838042,28.2845588 14.4563846,28.2390835 14.5906853,28.1465258 C14.725951,28.0542895 14.8518881,27.9159351 14.9654406,27.7340336 C15.0796364,27.553739 15.1962448,27.3212201 15.3118881,27.0379229 C15.4325175,26.7559113 15.584028,26.4248892 15.769958,26.0461419 C16.1414965,25.2783633 16.5571049,24.5321172 17.019035,23.8133492 C17.4766224,23.0897605 17.9245594,22.440732 18.3528741,21.8624074 C18.785049,21.2863324 19.1707413,20.806993 19.5133287,20.4261568 C19.8546294,20.0469275 20.0971748,19.8103913 20.2417692,19.7179943 L20.5065105,19.7557566 C20.4819021,19.7816277 20.4265734,19.8740247 20.3426154,20.0350365 C20.2573706,20.1941199 20.1594196,20.4018926 20.0450629,20.6553013 C19.9308671,20.9069424 19.8078252,21.1952209 19.6773846,21.51387 C19.545979,21.8352507 19.4279231,22.1645053 19.3222517,22.5025978 C19.2173846,22.8408511 19.1286014,23.1762119 19.0555804,23.5083589 C18.9846503,23.8421128 18.9474965,24.1422824 18.9474965,24.4136884 C18.9474965,24.8186282 19.0026643,25.2479929 19.1138042,25.703068 C19.2233357,26.1594287 19.388035,26.579634 19.6082238,26.9648088 C19.8264825,27.3472519 20.1082727,27.664294 20.4508601,27.9132034 C20.7913566,28.1616307 21.1955455,28.2845588 21.6592448,28.2845588 C21.9633916,28.2845588 22.2823357,28.2345841 22.6165594,28.1328671 C22.9496573,28.0313108 23.281951,27.9037227 23.6174615,27.7476923 L23.6214825,27.7459247 C24.3931888,27.4398096 25.2713706,26.6554798 25.741986,25.8878619 C25.846049,26.0760304 25.9631399,26.2641988 26.0924545,26.4536527 C26.105,26.4782384 26.1173846,26.5070019 26.1296084,26.5266062 C26.1657972,26.5812409 26.2138881,26.6222169 26.251042,26.6754054 C26.3785874,26.84638 26.5128881,27.0179973 26.6627902,27.1896146 L26.6635944,27.1817408 C26.8931119,27.4140991 27.144021,27.623318 27.4280629,27.7992739 C27.9564196,28.1224223 28.5922168,28.2845588 29.3351329,28.2845588 C29.8498182,28.2845588 30.3349091,28.1966612 30.7918531,28.0189377 C31.2475105,27.8415355 31.6679441,27.6019461 32.0512238,27.2987234 C32.4369161,26.99534 32.7780559,26.6373218 33.078986,26.2232227 C33.3787902,25.8091236 33.6308252,25.3664217 33.8373427,24.8928671 C34.0441818,24.4214016 34.2027692,23.9314566 34.3140699,23.4251213 C34.4213497,22.9213569 34.477965,22.4177533 34.477965,21.9200952 C34.477965,21.6806666 34.4631678,21.4362565 34.4351818,21.1862223 C34.4047832,20.9161018 34.3576573,20.6401964 34.293965,20.3580241 C34.1842727,19.8619729 34.0144266,19.3950067 33.8022797,18.9457164 L33.8304266,18.9550365 C34.830042,19.399506 35.7254336,20.0075584 36.2967343,20.4412617 C36.7015664,20.7584645 37.0903147,21.0828984 37.4544545,21.412153 L37.4642657,21.4227585 C37.3891538,21.8810475 37.3166154,22.3358012 37.2593566,22.7786639 C37.1874615,23.3291891 37.1297203,23.8478976 37.0874196,24.3423419 C37.0456014,24.8355007 37.0237273,25.269204 37.0237273,25.6407201 C37.0237273,25.9789734 37.0428671,26.3051748 37.0803427,26.6222169 C37.1191049,26.9378128 37.196951,27.2198244 37.3090559,27.4684124 C37.4226084,27.7189287 37.5865035,27.9159351 37.7962378,28.0632882 C38.0070979,28.2099985 38.2874406,28.2845588 38.6327622,28.2845588 C38.7858811,28.2845588 38.9235594,28.2570808 39.0506224,28.2027674 C39.1765594,28.1478113 39.2954196,28.0542895 39.4059161,27.9177027 C39.5141608,27.7824014 39.6222448,27.6080524 39.7275944,27.3925666 C39.8331049,27.1772415 39.9456923,26.9058354 40.0653566,26.5767416 L42.3302937,20.2608064 L42.5337552,20.2608064 C42.6017902,20.7930129 42.6900909,21.3181491 42.8005874,21.8384645 C42.9094755,22.357173 43.0788392,22.8257462 43.3064266,23.2430591 C43.5343357,23.6597292 43.8428252,23.9983038 44.2315734,24.2544443 C44.4805524,24.4201161 44.7842168,24.526011 45.134042,24.5849844 L45.1301818,24.5910906 C45.1301818,24.5910906 45.1734476,24.5971968 45.2356923,24.6033031 C45.4023217,24.6246749 45.576993,24.641226 45.7643706,24.641226 C45.7875315,24.641226 45.811014,24.6338343 45.8343357,24.6338343 L45.8296713,24.6399405 C45.834014,24.6396191 45.8463986,24.6402619 45.8663427,24.6409046 C46.0825105,24.6482964 47.186028,24.6556881 48.6358322,23.4551704 C48.7989231,24.4578783 49.0408252,25.316447 49.3610559,26.0260556 C49.689007,26.7559113 50.1004336,27.3154352 50.5890629,27.7036631 C51.0786573,28.0918911 51.6454545,28.2845588 52.2867203,28.2845588 C53.2634965,28.3427288 54.3274476,27.9498408 55.3994406,27.2953489 L55.4050699,27.2930992 L55.4161678,27.2853861 C56.1283636,26.8487904 56.8439371,26.2977831 57.540049,25.6833031 C57.5281469,25.8272817 57.5165664,25.9715816 57.5067552,26.1080077 C57.4467622,26.893623 57.4059091,27.521601 57.3851608,27.9932272 C57.3642517,28.466621 57.3541189,28.7229222 57.3541189,28.7667907 C57.3541189,29.2813212 57.3716503,29.8135277 57.4112168,30.3669454 C57.4475664,30.9174706 57.5136713,31.4623717 57.6061538,31.9929713 C57.7018531,32.5254992 57.8277902,33.0289421 57.9931329,33.5053891 C58.1578322,33.981354 58.3620979,34.3999524 58.6088252,34.7597381 C58.8524965,35.1161494 59.1471538,35.4010534 59.4940839,35.6138075 C59.841014,35.8244725 60.2455245,35.9274751 60.710993,35.9274751 C61.1738881,35.9274751 61.5922308,35.8336319 61.9571748,35.6377503 C62.3261399,35.4436364 62.6511958,35.1891028 62.9325035,34.8719 C63.2159021,34.5566255 63.4616643,34.1925011 63.6726853,33.7841869 C63.8854755,33.3733016 64.0644895,32.9503645 64.2118182,32.5118405 C64.3607552,32.0736379 64.4805804,31.6397738 64.5729021,31.2091236 C64.6655455,30.7781521 64.7371189,30.3865496 64.7884266,30.031906 C64.8400559,29.6785478 64.8743147,29.3764499 64.8963497,29.1325219 C64.915972,28.8881119 64.9281958,28.7290284 64.9281958,28.6531826 C64.9281958,28.0023865 64.8416643,27.3593037 64.6686014,26.7237732 C64.4956993,26.0867966 64.303014,25.508954 64.0916713,24.9949055 C63.8475175,24.3955304 63.5724825,23.8191341 63.2681748,23.2626633 C63.8581329,23.2369528 64.4546853,23.1762119 65.0541329,23.0836542 C65.568979,23.0004166 66.1323986,22.8744354 66.7395664,22.7044249 C66.8638951,22.6695551 66.9837203,22.6195804 67.1069231,22.5800506 C67.0823147,22.7270823 67.0583497,22.8789347 67.0371189,23.0213064 C66.8791748,24.0240143 66.8022937,24.8522125 66.8022937,25.5012409 C66.8022937,26.0336081 66.8581049,26.4782384 66.966993,26.837542 C67.0765245,27.1953995 67.2267483,27.4838387 67.4183077,27.7036631 C67.606972,27.9222021 67.8247483,28.0780717 68.0679371,28.1706294 C68.3148252,28.2644725 68.5747413,28.3105907 68.8558881,28.3105907 C69.1904336,28.3105907 69.538972,28.2421366 69.8995734,28.1010504 C70.2561538,27.962696 70.6132168,27.770189 70.9620769,27.526261 C71.3128671,27.2818509 71.6569021,26.9922869 71.9962727,26.6599792 C72.3324266,26.3265466 72.6547483,25.960976 72.9571259,25.5635888 C73.0426923,25.9531022 73.1432168,26.3051748 73.2564476,26.6222169 C73.37,26.9378128 73.5096084,27.2088975 73.6752727,27.438042 C73.8375594,27.6659009 74.0341049,27.8415355 74.2624965,27.968963 C74.4905664,28.0952656 74.7644755,28.1587383 75.086958,28.1587383 C75.1646434,28.1587383 75.2495664,28.1478113 75.330951,28.1420265 L75.3203357,28.1510251 C75.3203357,28.1510251 75.9781678,28.2525815 77.0895664,27.7279274 C77.1444126,27.7083232 77.1981329,27.6930576 77.252014,27.6704002 C77.2856294,27.6581878 77.3066993,27.6323166 77.3311469,27.6080524 C77.7559231,27.3851748 78.2440699,27.0575272 78.7738741,26.6228597 L78.779986,26.6283232 C78.779986,26.6283232 79.1217692,26.3681655 79.672,25.8091236 C79.7197692,25.7607558 79.7652867,25.7226722 79.8141818,25.6726975 C80.3862867,27.2321976 81.3896014,28.3179824 83.1546503,27.4974974 C84.6523846,26.8013867 85.5413427,26.2354352 86.0756503,25.7895194 L86.0769371,25.7924118 L86.0975245,25.7728076 C86.5454615,25.3951852 86.7346084,25.1085136 86.8056993,24.9081327 L86.8095594,24.9068472 L86.8056993,24.9068472 C86.8431748,24.7993453 86.8505734,24.715465 86.8438182,24.6592233 C86.8505734,24.5033537 86.834007,24.3167921 86.8471958,24.0240143 C86.8848322,23.1397352 85.3074825,24.2591043 85.3074825,24.2591043 L85.311021,24.268103 C85.2248112,24.3228984 85.1434266,24.3775331 85.0544825,24.4307216 C84.9224336,24.5107454 84.7964965,24.5730933 84.6691119,24.6444398 C84.0391049,24.9401101 83.1651049,25.1933581 82.4577343,24.8022378 C82.2048951,24.6624371 81.9126503,24.4988543 81.6615804,24.1880792 L81.4748462,23.692028 C81.9354895,23.0654962 82.4136643,22.3510668 82.9034196,21.5379735 L83.1348671,21.152638 C83.5118741,20.5093944 83.8957972,19.8091058 84.2866364,19.0429341 C84.3440559,18.9296474 84.4022797,18.8145931 84.4601818,18.6985746 C84.4746573,18.669811 84.4868811,18.6455468 84.5015175,18.6167832 C84.5534685,18.5222973 84.6054196,18.4276506 84.6573706,18.3331647 C84.9462378,17.8061003 85.2347832,17.2777503 85.5228462,16.7391162 C85.9625804,15.9170243 86.3851049,15.0870585 86.7909021,14.2514685 C87.1958951,13.4171641 87.5527972,12.5844666 87.8611259,11.7519298 C88.1675245,10.9221247 88.4136084,10.0948906 88.5943916,9.27199524 C88.7756573,8.44909984 88.8683007,7.64147002 88.8683007,6.84830234 C88.8683007,6.49478351 88.8401538,6.14672817 88.7846643,5.80461836" id="Fill-5" fill="#51607F"></path>
            <path d="M13.9500629,28.2790954 C13.8506643,28.2710609 13.7597902,28.249689 13.676958,28.2159441 C13.7593077,28.2487249 13.8503427,28.2697753 13.9500629,28.2790954 M13.4397203,28.0697158 C13.3102448,27.9570719 13.2073077,27.8029698 13.1262448,27.6152834 C13.2026434,27.7854545 13.2981818,27.928951 13.4138252,28.0451302 C13.4221888,28.0534861 13.4308741,28.0616813 13.4397203,28.0697158 M12.8716364,26.3472757 C12.8528182,26.0819759 12.8455804,25.7993215 12.8455804,25.5057402 C12.8462238,25.7908049 12.8547483,26.0718524 12.8716364,26.3472757 M17.3522937,20.414105 L17.1451329,20.2691623 C17.1470629,20.2659485 17.1488322,20.2630561 17.1507622,20.2598423 C17.2194406,20.3115846 17.290049,20.3620414 17.3566364,20.4086416 C17.3551888,20.4104092 17.3537413,20.4123374 17.3522937,20.414105" id="Fill-6" fill="#E6E6E8"></path>
            <path d="M13.9852867,28.281345 C13.9735455,28.2807023 13.9616434,28.2800595 13.9500629,28.2790954 C13.8503427,28.2697753 13.7593077,28.2487249 13.676958,28.2159441 C13.5893007,28.1804315 13.5104895,28.1312602 13.4397203,28.0697158 C13.4308741,28.0616813 13.4221888,28.0534861 13.4138252,28.0451302 C13.2981818,27.928951 13.2026434,27.7854545 13.1262448,27.6152834 C12.9824545,27.2831364 12.9068601,26.8458979 12.8716364,26.3472757 C12.8547483,26.0718524 12.8462238,25.7908049 12.8455804,25.5057402 C14.572993,24.0214432 16.013951,22.0986222 17.1451329,20.2691623 L17.3522937,20.414105 C17.3537413,20.4123374 17.3551888,20.4104092 17.3566364,20.4086416 C17.3616224,20.4120161 17.3666084,20.4155513 17.3715944,20.4190864 C15.3551538,23.1758905 13.7014056,26.1642494 13.9852867,28.281345" id="Fill-7" fill="#51607F"></path>
            <path d="M24.7933566,22.8295343 C24.7958197,22.817639 24.7982828,22.8057437 24.8002532,22.7940466 C24.9500069,22.6534835 25.117002,22.496267 25.2933566,22.3295343 C25.1322729,22.4980513 24.9652778,22.6655771 24.7933566,22.8295343" id="Fill-8" fill="#E6E6E8"></path>
            <path d="M25.0524685,26.7269871 C24.6981399,25.5300045 24.6933147,24.0233715 24.7933566,22.7347954 C24.8494895,22.6019045 24.904014,22.4661211 24.9566084,22.3295343 C24.9862028,22.2602767 25.0164406,22.1889302 25.0473217,22.1162982 C24.8573706,23.7187026 25.2787692,25.0006904 25.7389301,25.8743639 C25.599,26.1173278 25.3817063,26.4001428 25.0524685,26.7269871" id="Fill-9" fill="#51607F"></path>
            <path d="M34.4778042,21.9748906 C34.477965,21.9565719 34.477965,21.9384139 34.477965,21.9200952 C34.477965,21.8725309 34.4774825,21.8248058 34.4763566,21.7769201 C34.4773217,21.7921857 34.4782867,21.807612 34.4790909,21.8228775 C34.4790909,21.8754233 34.4786084,21.9260408 34.4778042,21.9748906 M34.339,20.5706175 C34.3251678,20.5000744 34.310049,20.4293706 34.293965,20.3580241 C34.2773986,20.2833031 34.2595455,20.2093855 34.2404056,20.1357893 C34.265014,20.2243297 34.2876923,20.3127094 34.3077972,20.3993215 C34.3185734,20.4547597 34.329028,20.5118048 34.339,20.5706175 M34.0573706,19.553126 C33.9975385,19.3898646 33.9315944,19.2294956 33.8603427,19.0713763 C33.8999091,19.1536498 33.9438182,19.2495819 33.9869231,19.3540307 C34.0099231,19.417664 34.0335664,19.4843505 34.0573706,19.553126 M31.1826923,18.7438893 C31.0594895,18.663062 30.8592448,18.5692189 30.595951,18.5692189 C30.5335455,18.5692189 30.4677622,18.5745216 30.3986014,18.5864127 L30.391042,18.5849665 C30.4483007,18.5774141 30.5052378,18.5664871 30.5633007,18.5664871 C30.801986,18.5664871 31.008021,18.6254605 31.1826923,18.7438893" id="Fill-10" fill="#E6E6E8"></path>
            <path d="M34.4583427,22.4264306 C34.4536783,22.4135754 33.2345175,19.1322779 31.2647203,18.8036661 C31.243007,18.7859902 31.2156643,18.7654218 31.1826923,18.7438893 C31.008021,18.6254605 30.801986,18.5664871 30.5633007,18.5664871 C30.5052378,18.5664871 30.4483007,18.5774141 30.391042,18.5849665 C30.391042,18.5849665 30.7990909,18.452879 31.4749371,18.452879 C32.0721329,18.452879 32.8785804,18.5560423 33.7972937,18.9444309 C33.8162727,18.9815504 33.8376643,19.024294 33.8603427,19.0713763 C33.9315944,19.2294956 33.9975385,19.3898646 34.0573706,19.553126 C34.1210629,19.7372772 34.1852378,19.9370153 34.2404056,20.1357893 C34.2595455,20.2093855 34.2773986,20.2833031 34.293965,20.3580241 C34.310049,20.4293706 34.3251678,20.5000744 34.339,20.5706175 C34.398028,20.9127273 34.4464406,21.3112394 34.4763566,21.7769201 C34.4774825,21.8248058 34.477965,21.8725309 34.477965,21.9200952 C34.477965,21.9384139 34.477965,21.9565719 34.4778042,21.9748906 C34.4747483,22.1567921 34.4667063,22.3112156 34.4583427,22.4264306" id="Fill-11" fill="#51607F"></path>
            <path d="M49.1234476,24.5244041 C48.9399742,24.2033447 48.7708565,23.8511114 48.6234476,23.4652939 C48.6325512,23.4619194 48.6416548,23.4585449 48.6504083,23.4551704 C48.7838117,23.8319893 48.9413747,24.1885612 49.1234476,24.5244041" id="Fill-12" fill="#E6E6E8"></path>
            <path d="M49.8800839,26.9378128 C49.5786713,26.4973605 49.1701399,25.7324743 48.8531259,24.5244041 C48.7694895,24.1885612 48.6971119,23.8319893 48.6358322,23.4551704 C48.6318112,23.4585449 48.6276294,23.4619194 48.6234476,23.4652939 C48.6223217,23.4582235 48.621035,23.4509924 48.6197483,23.4437613 C48.627951,23.4350841 50.2702797,21.6522244 51.3224895,20.0343937 C51.3054406,20.4635977 51.2895175,20.9048534 51.2787413,21.2080762 C50.5105734,23.0401071 49.9251189,25.0384526 49.8800839,26.9378128" id="Fill-13" fill="#51607F"></path>
            <path d="M53.4811119,16.9565303 L53.2105804,16.9565303 C53.2125105,16.9533165 53.2144406,16.949942 53.2163706,16.9467282 L53.4872238,16.9467282 C53.4851329,16.949942 53.483042,16.9533165 53.4811119,16.9565303 M54.7805315,14.9585062 C54.7235944,14.95706 54.6692308,14.9556137 54.6172797,14.9546496 C54.5183636,14.9514358 54.4413217,14.948222 54.3756993,14.9443654 C54.5108042,14.9493468 54.6555594,14.9541675 54.7805315,14.9585062" id="Fill-14" fill="#E6E6E8"></path>
            <path d="M53.2105804,16.9565303 L53.1928881,16.9565303 C53.6244196,16.2033745 54.0784685,15.388835 54.326,14.9424371 C54.3424056,14.9430799 54.358972,14.9437227 54.3756993,14.9443654 C54.4413217,14.948222 54.5183636,14.9514358 54.6172797,14.9546496 C54.6692308,14.9556137 54.7235944,14.95706 54.7805315,14.9585062 C54.7847133,14.9586669 54.7890559,14.9588276 54.7932378,14.9589882 C54.4715594,15.4139027 54.0064126,16.0978009 53.4872238,16.9467282 L53.2163706,16.9467282 C53.2144406,16.949942 53.2125105,16.9533165 53.2105804,16.9565303" id="Fill-15" fill="#51607F"></path>
            <path d="M48.392,20.5439429 C48.3813846,20.3344026 48.3768811,19.7673263 48.3754336,19.5892814 C49.5743287,18.351162 51.4773776,15.361839 51.892986,14.6764946 C51.9336783,14.6809939 52.1107622,14.7020443 52.1548322,14.706865 C51.6552657,15.5630234 49.605049,19.042452 48.392,20.5439429" id="Fill-16" fill="#51607F"></path>
            <path d="M61.5775944,17.7006874 C61.6425944,17.5330873 61.7080944,17.3611486 61.7730944,17.1840678 C61.7860944,17.1776402 61.7990944,17.1712126 61.8120944,17.1649457 C61.7365944,17.3707901 61.6620944,17.5459426 61.5915944,17.6937777 C61.5870944,17.6961881 61.5825944,17.698277 61.5775944,17.7006874" id="Fill-17" fill="#E6E6E8"></path>
            <path d="M57.8493427,22.5162565 C57.8811888,22.2397084 57.9353916,21.7309627 57.9673986,21.4688767 C59.6497762,20.4472073 61.0653217,18.0704359 61.6404825,17.1840678 C61.6195734,17.3611486 61.5985035,17.5330873 61.5775944,17.7006874 C61.5792028,17.698277 61.5806503,17.6961881 61.5820979,17.6937777 C61.5788811,17.7156316 61.5755035,17.7368427 61.5722867,17.7574111 C60.186014,19.9183752 58.8508881,21.4831781 57.8493427,22.5162565" id="Fill-18" fill="#51607F"></path>
            <path d="M57.3552448,28.9952924 C57.3552448,28.9943282 57.3552448,28.9935248 57.3552448,28.9925606 C57.3552448,28.9933641 57.3552448,28.9943282 57.3554056,28.9951317 C57.3552448,28.9952924 57.3552448,28.9951317 57.3552448,28.9952924 M60.590042,23.1307365 C60.5903636,23.1289689 60.5908462,23.1270406 60.5911678,23.125273 L60.5913287,23.125273 C60.591007,23.1270406 60.5905245,23.1289689 60.590042,23.1307365 M60.6387762,22.9046451 C60.6394196,22.9019134 60.6400629,22.8991817 60.6407063,22.8966106 C60.6407063,22.8970927 60.6405455,22.8975748 60.6405455,22.8980568 L60.6408671,22.8980568 C60.6402238,22.9001458 60.6394196,22.9023955 60.6387762,22.9046451 M60.913007,22.7982681 C60.9043217,22.7889481 60.8953147,22.7801101 60.885986,22.7719149 C60.8457762,22.7309388 60.8009021,22.6983187 60.7597273,22.6983187 C60.7362448,22.6983187 60.7138881,22.709085 60.6945874,22.7349561 C60.7089021,22.7066746 60.7227343,22.6925338 60.7359231,22.6925338 C60.7923776,22.6925338 60.8515664,22.7278857 60.913007,22.7982681 M62.4657483,20.8887844 C62.3702098,20.8810713 62.2729021,20.8725547 62.1736643,20.8630739 C62.1593497,20.8560036 62.1456783,20.8519863 62.1326503,20.8519863 C62.1246084,20.8519863 62.1168881,20.8534325 62.1094895,20.8566463 C62.113993,20.8505401 62.1184965,20.8445946 62.123,20.8384883 C62.242021,20.8587353 62.3563776,20.8752864 62.4657483,20.8887844" id="Fill-19" fill="#E6E6E8"></path>
            <path d="M57.3554056,28.9951317 C57.3552448,28.9943282 57.3552448,28.9933641 57.3552448,28.9925606 C57.3645734,28.1423479 57.4403287,27.1140902 57.5476084,25.7127094 C58.8772657,24.6190507 60.4668392,23.0518375 62.1094895,20.8566463 C62.1168881,20.8534325 62.1246084,20.8519863 62.1326503,20.8519863 C62.1456783,20.8519863 62.1593497,20.8560036 62.1736643,20.8630739 C62.2729021,20.8725547 62.3702098,20.8810713 62.4657483,20.8887844 C62.5205944,20.8955334 62.573993,20.9016396 62.6262657,20.9069424 C62.3074825,21.2582116 61.6781189,21.9568933 60.9567552,22.8514566 C60.9435664,22.83362 60.9289301,22.8153013 60.913007,22.7982681 C60.8515664,22.7278857 60.7923776,22.6925338 60.7359231,22.6925338 C60.7227343,22.6925338 60.7089021,22.7066746 60.6945874,22.7349561 C60.6717483,22.7653266 60.6529301,22.8167475 60.6407063,22.8966106 C60.6400629,22.8991817 60.6394196,22.9019134 60.6387762,22.9046451 C60.6209231,22.9613688 60.6045175,23.0330368 60.591007,23.125273 L60.5911678,23.125273 C60.5908462,23.1270406 60.5903636,23.1289689 60.590042,23.1307365 C60.5692937,23.2183128 60.5544965,23.3057283 60.5448462,23.3717721 C59.2737343,25.0072787 57.8544895,27.1280702 57.3554056,28.9951317" id="Fill-20" fill="#51607F"></path>
            <path d="M81.1893566,20.2604885 L81.1893566,20.2009885 C81.1928566,20.1734885 81.1968566,20.1449885 81.2008566,20.1169885 C81.1963566,20.1669885 81.1928566,20.2144885 81.1903566,20.2584885 C81.1898566,20.2589885 81.1898566,20.2599885 81.1893566,20.2604885" id="Fill-21" fill="#E6E6E8"></path>
            <path d="M79.2422378,23.2523791 L79.2346783,23.2417735 C79.2177902,23.1064723 79.1804755,22.8167475 79.148951,22.5504836 C80.1685105,21.5104955 80.8882657,20.4581342 81.2134825,19.9471388 C81.2047972,20.0067549 81.1975594,20.0660497 81.1930559,20.1169885 C81.1917692,20.1259872 81.1904825,20.1351466 81.1893566,20.1439845 L81.1893566,20.1631067 C81.1895175,20.162946 81.1895175,20.1626246 81.1896783,20.1624639 C81.1891958,20.1703377 81.1888741,20.1778902 81.1887133,20.1851213 C80.4424196,21.4566642 79.7646434,22.503562 79.2422378,23.2523791" id="Fill-22" fill="#51607F"></path>
            <path d="M80.4871329,26.9524356 C80.3385175,26.7689272 80.1821818,26.5351227 80.0496503,26.2471656 L80.053028,26.2420235 C80.0382308,26.2113316 80.0235944,26.1793543 80.0091189,26.1467341 C80.1474406,26.4464217 80.3058671,26.7192739 80.4871329,26.9524356 M81.7188392,24.2555691 C81.6995385,24.2338759 81.6803986,24.2113793 81.6615804,24.1880792 L81.6091469,24.0489213 C81.6469441,24.1328017 81.6849021,24.1998096 81.7209301,24.2531588 C81.7202867,24.2539622 81.7194825,24.2547657 81.7188392,24.2555691 M81.5052448,23.7726945 L81.4748462,23.692028 C81.4754895,23.6910638 81.4761329,23.6902604 81.4767762,23.6892962 C81.4862657,23.7178991 81.4957552,23.7456986 81.5052448,23.7726945" id="Fill-23" fill="#E6E6E8"></path>
            <path d="M80.6553706,27.1438179 C80.6016503,27.0874156 80.545035,27.0237822 80.4871329,26.9524356 C80.3058671,26.7192739 80.1474406,26.4464217 80.0091189,26.1467341 C79.9967343,26.1189347 79.9843497,26.0906532 79.971965,26.0625324 C79.9230699,25.9370332 79.879965,25.8010891 79.842972,25.6575926 C80.4702448,24.9968338 81.0291608,24.295581 81.4767762,23.6891355 L81.4767762,23.6892962 C81.4761329,23.6902604 81.4754895,23.6910638 81.4748462,23.692028 L81.5052448,23.7726945 C81.5137692,23.7971195 81.5221329,23.8209017 81.5304965,23.8440411 C81.5560699,23.9214938 81.5826084,23.9894659 81.6091469,24.0489213 L81.6615804,24.1880792 C81.6803986,24.2113793 81.6995385,24.2338759 81.7188392,24.2555691 C81.3172238,24.6992352 80.6544056,25.6556643 80.6553706,27.1438179" id="Fill-24" fill="#51607F"></path>
            <path d="M15.6195734,19.2927392 C15.6585734,19.1284678 15.7010734,18.9635279 15.7460734,18.7982539 C15.7490734,18.7964156 15.7530734,18.7945774 15.7560734,18.7927392 C15.7260734,18.9284344 15.6820734,19.1276322 15.6465734,19.2753595 C15.6375734,19.2812084 15.6285734,19.2868902 15.6195734,19.2927392" id="Fill-25" fill="#E6E6E8"></path>
            <path d="M12.8817692,22.6501116 C12.8832168,22.4842791 12.8959231,22.0621455 12.9091119,21.690308 C14.0383636,21.1023419 15.0313846,19.7866091 15.6602657,18.798042 C15.6457902,18.9569647 15.6321189,19.1155661 15.6195734,19.2735248 C15.2123287,20.0449993 14.3999301,21.2831186 12.8817692,22.6501116" id="Fill-26" fill="#51607F"></path>
        </g>
    </g>
</svg>
